<?xml version="1.0" encoding="UTF-8"?>
<svg version="1.1" xmlns="http://www.w3.org/2000/svg" width="500" height="500">
<path d="M0 0 C165 0 330 0 500 0 C500 165 500 330 500 500 C335 500 170 500 0 500 C0 335 0 170 0 0 Z " fill="#FEFDFE" transform="translate(0,0)"/>
<path d="M0 0 C4.02056558 1.14607802 6.49447446 3.68520917 9.41015625 6.59765625 C10.00078857 7.18248779 10.5914209 7.76731934 11.19995117 8.36987305 C13.8477985 11.19288626 15.38210041 12.96122751 16.15625 16.8125 C15.87490535 19.29474329 15.44236602 21.39956997 14.53515625 23.72265625 C17.27979065 24.31042259 17.27979065 24.31042259 20.53515625 23.72265625 C22.86637747 21.62770745 24.70844246 19.26191798 26.53515625 16.72265625 C23.34546733 17.47849906 23.34546733 17.47849906 21.53515625 20.28515625 C20.87515625 21.08953125 20.21515625 21.89390625 19.53515625 22.72265625 C18.54515625 22.72265625 17.55515625 22.72265625 16.53515625 22.72265625 C17.00762267 18.4704585 19.30788002 16.349509 22.53515625 13.72265625 C28.50391701 14.01832483 32.93350539 20.61009487 36.84765625 24.53515625 C37.79189453 25.45103516 38.73613281 26.36691406 39.70898438 27.31054688 C41.04026367 28.63795898 41.04026367 28.63795898 42.3984375 29.9921875 C43.21610596 30.80276611 44.03377441 31.61334473 44.8762207 32.44848633 C46.53515625 34.72265625 46.53515625 34.72265625 46.29370117 37.01831055 C46.04338135 37.58074463 45.79306152 38.14317871 45.53515625 38.72265625 C44.91640625 38.80515625 44.29765625 38.88765625 43.66015625 38.97265625 C41.35168821 39.51076358 41.35168821 39.51076358 40.53515625 41.72265625 C39.53515625 43.72265625 39.53515625 43.72265625 37.53515625 44.53515625 C35.53515625 44.72265625 35.53515625 44.72265625 33.53515625 43.72265625 C33.74140625 44.34140625 33.94765625 44.96015625 34.16015625 45.59765625 C34.28390625 46.29890625 34.40765625 47.00015625 34.53515625 47.72265625 C33.87515625 48.38265625 33.21515625 49.04265625 32.53515625 49.72265625 C29.91935146 49.39568065 27.89437488 48.90226557 25.53515625 47.72265625 C26.19515625 48.38265625 26.85515625 49.04265625 27.53515625 49.72265625 C27.16015625 51.84765625 27.16015625 51.84765625 26.53515625 53.72265625 C21.60844765 53.57336205 19.56677952 51.02489162 16.390625 47.65234375 C14.68060382 45.87392172 12.92496744 44.30501442 11.03515625 42.72265625 C4.75916856 37.32210102 -0.95898475 31.3061222 -6.77880859 25.42480469 C-8.99959599 23.18279343 -11.23135129 20.95200494 -13.46484375 18.72265625 C-14.46484375 17.72265625 -14.46484375 17.72265625 -14.8828125 15.5546875 C-14.26681552 11.3808762 -11.69257738 9.22286114 -8.77734375 6.41015625 C-8.24689453 5.86037109 -7.71644531 5.31058594 -7.16992188 4.74414062 C-4.92786675 2.52959538 -3.05165251 0.89470002 0 0 Z " fill="#2D2D2E" transform="translate(95.46484375,214.27734375)"/>
<path d="M0 0 C1.32 0 2.64 0 4 0 C4.09953791 4.14422261 4.17177901 8.28779575 4.21972656 12.43286133 C4.23973246 13.84021134 4.26694662 15.24747938 4.30175781 16.65454102 C4.65349796 31.24658434 4.65349796 31.24658434 0 37 C-4.87740939 40.59999264 -10.14796935 40.85267318 -16 40 C-18.9187789 38.91251947 -21.30302836 37.59820541 -24 36 C-23.67 35.01 -23.34 34.02 -23 33 C-20.83125748 33.50603992 -19.00032373 33.99983813 -17 35 C-15.21247508 35.14754174 -13.4183716 35.2211522 -11.625 35.25 C-10.19027344 35.28867187 -10.19027344 35.28867187 -8.7265625 35.328125 C-5.54162834 34.9448378 -4.22555707 34.29222122 -2 32 C-1.31149171 29.9683434 -1.31149171 29.9683434 -1.25 27.8125 C-1.1675 26.554375 -1.085 25.29625 -1 24 C-1.598125 24.474375 -2.19625 24.94875 -2.8125 25.4375 C-6.87021465 28.33586761 -11.15559349 28.66060089 -16 28 C-20.36339712 25.77713731 -23.23431511 23.61039944 -25 19 C-25.63287995 13.81976044 -25.87957568 9.53925744 -23.25 4.9375 C-18.52495918 0.86871485 -14.7386681 0.64079165 -8.640625 0.73046875 C-5.47132897 1.05396198 -3.45283099 1.9700709 -1 4 C-0.67 2.68 -0.34 1.36 0 0 Z " fill="#3D3D3D" transform="translate(329,240)"/>
<path d="M0 0 C5.24086352 1.11643904 8.50066919 4.60996499 11.87890625 8.61328125 C13.25390625 12.30078125 13.25390625 12.30078125 12.87890625 15.61328125 C10.69140625 18.23828125 10.69140625 18.23828125 7.87890625 20.61328125 C7.15703125 21.54140625 6.43515625 22.46953125 5.69140625 23.42578125 C5.09328125 24.14765625 4.49515625 24.86953125 3.87890625 25.61328125 C3.21890625 25.61328125 2.55890625 25.61328125 1.87890625 25.61328125 C1.87890625 26.27328125 1.87890625 26.93328125 1.87890625 27.61328125 C1.21890625 27.61328125 0.55890625 27.61328125 -0.12109375 27.61328125 C-0.78109375 28.93328125 -1.44109375 30.25328125 -2.12109375 31.61328125 C-6.44614211 29.9546462 -9.215282 26.74224025 -12.37109375 23.48828125 C-12.92539063 22.92496094 -13.4796875 22.36164063 -14.05078125 21.78125 C-15.4121386 20.39642097 -16.76724234 19.00544921 -18.12109375 17.61328125 C-16.11012474 13.22159211 -13.22411166 10.27630842 -9.87109375 6.86328125 C-9.31035156 6.26128906 -8.74960938 5.65929687 -8.171875 5.0390625 C-5.44192087 2.25867042 -3.89446332 0.76524498 0 0 Z " fill="#5D5D5F" transform="translate(147.12109375,214.38671875)"/>
<path d="M0 0 C4.63503832 1.22692191 6.69604041 3.66692551 9.578125 7.26953125 C11.04928283 9.15055646 11.04928283 9.15055646 13.3125 11.0625 C15.6663269 13.765042 16.0715787 15.42106498 16 19 C14.58063602 21.45874076 13.07128519 22.97688423 11 25 C10.34 25 9.68 25 9 25 C8.690625 25.639375 8.38125 26.27875 8.0625 26.9375 C7 29 7 29 6 30 C3.0259897 30.48024759 0.90569991 30.57777858 -1.69384766 28.91943359 C-3.4786364 27.40930657 -5.14995483 25.83108798 -6.8125 24.1875 C-7.68938477 23.36668945 -7.68938477 23.36668945 -8.58398438 22.52929688 C-11.14322422 20.08274662 -12.86550046 18.40349861 -14 15 C-12.23000902 13.06172464 -10.45904239 11.12435656 -8.6875 9.1875 C-8.18798828 8.64029297 -7.68847656 8.09308594 -7.17382812 7.52929688 C-4.83056872 4.96878163 -2.48855146 2.42060466 0 0 Z " fill="#5E5E61" transform="translate(146,251)"/>
<path d="M0 0 C2.44221174 0.92873709 3.94262923 2.2283074 5.87182617 3.9855957 C6.56147461 4.61079102 7.25112305 5.23598633 7.96166992 5.88012695 C10.3405756 8.1177115 12.66082286 10.39104542 14.93432617 12.7355957 C13.31860679 16.68095699 10.62226534 19.48464443 7.68432617 22.4855957 C7.21897461 22.99219727 6.75362305 23.49879883 6.27416992 24.02075195 C3.87147891 26.47639483 2.27985568 27.67116747 -1.12426758 28.3059082 C-4.73452389 27.60591163 -6.23729778 26.38899832 -8.87817383 23.8605957 C-9.64774414 23.14129883 -10.41731445 22.42200195 -11.21020508 21.6809082 C-13.44700762 19.33579733 -13.99049935 18.22074949 -14.48754883 15.01293945 C-13.88963662 10.36804739 -11.61896434 8.43622169 -8.31567383 5.2980957 C-7.7768457 4.74444336 -7.23801758 4.19079102 -6.68286133 3.62036133 C-2.64069277 -0.33800618 -2.64069277 -0.33800618 0 0 Z " fill="#2E2E30" transform="translate(98.065673828125,255.264404296875)"/>
<path d="M0 0 C3.05615384 1.66418093 4.44889357 3.89778714 6 7 C6.08400529 8.59447464 6.10727467 10.19240545 6.09765625 11.7890625 C6.09443359 12.73007813 6.09121094 13.67109375 6.08789062 14.640625 C6.07951172 15.62546875 6.07113281 16.6103125 6.0625 17.625 C6.05798828 18.61757813 6.05347656 19.61015625 6.04882812 20.6328125 C6.03702145 23.0886016 6.020554 25.54427104 6 28 C4.68 28 3.36 28 2 28 C1.67 27.01 1.34 26.02 1 25 C0.44183594 25.4846875 -0.11632812 25.969375 -0.69140625 26.46875 C-4.5635868 29.03709988 -8.51998306 28.76717576 -13 28 C-16.56781839 25.57388349 -17.7463865 24.2173448 -18.625 20 C-17.77263548 15.90865032 -16.26006239 14.57782417 -13 12 C-10.1612599 11.63228755 -7.98179849 11.51369196 -5.1875 11.6875 C-4.49462891 11.71005859 -3.80175781 11.73261719 -3.08789062 11.75585938 C-1.39098427 11.81437339 0.30479861 11.9040452 2 12 C1.34 9.36 0.68 6.72 0 4 C-1.72880982 3.94550162 -3.45812712 3.90698312 -5.1875 3.875 C-6.63189453 3.84019531 -6.63189453 3.84019531 -8.10546875 3.8046875 C-11.12812778 4.0086456 -13.26769985 4.73125368 -16 6 C-16 4.68 -16 3.36 -16 2 C-11.13100781 -1.24599479 -5.68786264 -0.71989239 0 0 Z " fill="#363636" transform="translate(256,241)"/>
<path d="M0 0 C3.27252013 1.62979263 5.26124973 3.95903371 7.375 6.9375 C8 9 8 9 8 15 C0.08 15 -7.84 15 -16 15 C-12.81989159 21.7763932 -12.81989159 21.7763932 -9 24 C-3.75198038 24.34413243 0.05601526 23.9775939 5 22 C5 22.99 5 23.98 5 25 C1.21403841 28.40736543 -2.69569454 28.51089244 -7.5625 28.3515625 C-12.20575557 27.68186218 -14.81649566 25.30185478 -17.875 21.9375 C-19.97334714 16.45848248 -19.97163809 10.45466465 -17.8125 5 C-12.77521674 -0.55838153 -7.23207722 -1.14525563 0 0 Z " fill="#323232" transform="translate(359,241)"/>
<path d="M0 0 C2.9091534 1.26484931 4.46015566 2.25450067 6.3125 4.8125 C7.24508259 7.77980823 7.37237901 9.89684156 7 13 C3.84210526 18.57894737 3.84210526 18.57894737 1 20 C-3.96341236 20.61493604 -7.77342035 20.73594779 -12.125 18.125 C-14.76661537 13.72230772 -15.14033924 10.00436645 -14 5 C-10.67814983 -0.43575482 -5.75594696 -0.7309139 0 0 Z " fill="#F9F8F8" transform="translate(322,244)"/>
<path d="M0 0 C1.32 0 2.64 0 4 0 C4.33 4.95 4.66 9.9 5 15 C6.32 14.01 7.64 13.02 9 12 C12.72609993 11.33363339 16.26665539 11.38607222 20 12 C23.125 14.4375 23.125 14.4375 25 17 C25.33 17.33 25.66 17.66 26 18 C26.08700342 19.63472882 26.10701063 21.27314055 26.09765625 22.91015625 C26.09443359 23.89951172 26.09121094 24.88886719 26.08789062 25.90820312 C26.07951172 26.94912109 26.07113281 27.99003906 26.0625 29.0625 C26.05798828 30.10728516 26.05347656 31.15207031 26.04882812 32.22851562 C26.03699913 34.8190666 26.02051689 37.40950559 26 40 C24.68 40 23.36 40 22 40 C21.98598145 39.06933716 21.98598145 39.06933716 21.97167969 38.11987305 C21.91799005 35.30827323 21.83434354 32.4983402 21.75 29.6875 C21.73582031 28.71103516 21.72164062 27.73457031 21.70703125 26.72851562 C21.67480469 25.79072266 21.64257812 24.85292969 21.609375 23.88671875 C21.58842773 23.02264404 21.56748047 22.15856934 21.54589844 21.26831055 C21.17947204 18.85895092 21.17947204 18.85895092 19.17675781 17.22583008 C15.91095084 15.38670751 13.68041467 15.48345057 10 16 C7.13911952 18.05364374 5.29892267 19.66944584 4.50756836 23.19189453 C4.28445678 25.74181369 4.20467751 28.2530511 4.1875 30.8125 C4.16236328 31.69615234 4.13722656 32.57980469 4.11132812 33.49023438 C4.05269442 35.65968134 4.02342614 37.82988727 4 40 C2.68 40 1.36 40 0 40 C0 26.8 0 13.6 0 0 Z " fill="#2F2F2F" transform="translate(205,229)"/>
<path d="M0 0 C1.32 0 2.64 0 4 0 C4.33 0.99 4.66 1.98 5 3 C5.54785156 2.5153125 6.09570312 2.030625 6.66015625 1.53125 C10.75939692 -1.15139164 15.28086222 -0.77603599 20 0 C23.125 2.4375 23.125 2.4375 25 5 C25.33 5.33 25.66 5.66 26 6 C26.08700342 7.63472882 26.10701063 9.27314055 26.09765625 10.91015625 C26.09443359 11.89951172 26.09121094 12.88886719 26.08789062 13.90820312 C26.07951172 14.94912109 26.07113281 15.99003906 26.0625 17.0625 C26.05798828 18.10728516 26.05347656 19.15207031 26.04882812 20.22851562 C26.03699913 22.8190666 26.02051689 25.40950559 26 28 C24.68 28 23.36 28 22 28 C21.98598145 27.06933716 21.98598145 27.06933716 21.97167969 26.11987305 C21.91799005 23.30827323 21.83434354 20.4983402 21.75 17.6875 C21.73582031 16.71103516 21.72164063 15.73457031 21.70703125 14.72851562 C21.67480469 13.79072266 21.64257812 12.85292969 21.609375 11.88671875 C21.58842773 11.02264404 21.56748047 10.15856934 21.54589844 9.26831055 C21.17947204 6.85895092 21.17947204 6.85895092 19.17675781 5.22583008 C15.91095084 3.38670751 13.68041467 3.48345057 10 4 C7.13911952 6.05364374 5.29892267 7.66944584 4.50756836 11.19189453 C4.28445678 13.74181369 4.20467751 16.2530511 4.1875 18.8125 C4.16236328 19.69615234 4.13722656 20.57980469 4.11132812 21.49023438 C4.05269442 23.65968134 4.02342614 25.82988727 4 28 C2.68 28 1.36 28 0 28 C0 18.76 0 9.52 0 0 Z " fill="#333333" transform="translate(271,241)"/>
<path d="M0 0 C3.25 2 3.25 2 5 4 C4.67 4.99 4.34 5.98 4 7 C3.34 7 2.68 7 2 7 C2 6.34 2 5.68 2 5 C-1.89105955 3.70298015 -5.9596569 3.31194157 -10 4 C-12.97033746 5.98022497 -14.65454093 7.35242595 -15.40625 10.9375 C-15.6088089 15.39379571 -14.83077499 18.43532038 -12 22 C-8.28986601 24.47342266 -6.38939738 24.38503486 -2 24 C0.2072358 22.51199628 0.2072358 22.51199628 2 21 C2.99 21.33 3.98 21.66 5 22 C4.04867307 24.37831732 3.42918954 25.7315202 1.2265625 27.109375 C-2.77512318 28.71004927 -6.76929167 28.53468668 -11 28 C-14.76367773 26.22080689 -16.50626666 24.70768445 -18.875 21.3125 C-20.31762764 17.06476306 -20.72387285 13.43869285 -20 9 C-15.32829744 -0.00971208 -9.63811106 -1.24914127 0 0 Z " fill="#353535" transform="translate(193,241)"/>
<path d="M0 0 C9.99057873 -0.78734859 9.99057873 -0.78734859 14.125 2.4375 C14.74375 3.283125 15.3625 4.12875 16 5 C16.33 5.33 16.66 5.66 17 6 C17.08700342 7.63472882 17.10701063 9.27314055 17.09765625 10.91015625 C17.09443359 11.89951172 17.09121094 12.88886719 17.08789062 13.90820312 C17.07951172 14.94912109 17.07113281 15.99003906 17.0625 17.0625 C17.05798828 18.10728516 17.05347656 19.15207031 17.04882812 20.22851562 C17.03699913 22.8190666 17.02051689 25.40950559 17 28 C15.68 28 14.36 28 13 28 C12.98598145 27.06933716 12.98598145 27.06933716 12.97167969 26.11987305 C12.91799005 23.30827323 12.83434354 20.4983402 12.75 17.6875 C12.73582031 16.71103516 12.72164062 15.73457031 12.70703125 14.72851562 C12.67480469 13.79072266 12.64257812 12.85292969 12.609375 11.88671875 C12.58842773 11.02264404 12.56748047 10.15856934 12.54589844 9.26831055 C12.17748665 6.85989761 12.17748665 6.85989761 10.18457031 5.21020508 C7.0516416 3.4746298 4.52090986 3.74393383 1 4 C0.01 4.33 -0.98 4.66 -2 5 C-1.34 3.35 -0.68 1.7 0 0 Z " fill="#353535" transform="translate(214,241)"/>
<path d="M0 0 C2.63877763 1.40289443 3.92992249 2.72291474 6 5 C6 6.32 6 7.64 6 9 C-0.27 9 -6.54 9 -13 9 C-12 3 -12 3 -10.4375 1.125 C-6.92660388 -0.49541359 -3.74235013 -0.77427934 0 0 Z " fill="#F9F8F8" transform="translate(357,244)"/>
<path d="M0 0 C1.27617187 0.02320313 2.55234375 0.04640625 3.8671875 0.0703125 C5.78917969 0.09738281 5.78917969 0.09738281 7.75 0.125 C9.23113281 0.15980469 9.23113281 0.15980469 10.7421875 0.1953125 C10.26258717 6.55001691 10.26258717 6.55001691 8.1796875 9.1328125 C4.50329269 10.73534357 1.75043425 10.51342732 -2.2578125 10.1953125 C-3.2478125 9.5353125 -4.2378125 8.8753125 -5.2578125 8.1953125 C-5.5703125 5.1953125 -5.5703125 5.1953125 -5.2578125 2.1953125 C-3.2578125 0.1953125 -3.2578125 0.1953125 0 0 Z " fill="#F6F6F6" transform="translate(247.2578125,255.8046875)"/>
<path d="M0 0 C1.98 1.65 3.96 3.3 6 5 C5.67 6.32 5.34 7.64 5 9 C4.360625 9.12375 3.72125 9.2475 3.0625 9.375 C2.381875 9.58125 1.70125 9.7875 1 10 C0.67 10.66 0.34 11.32 0 12 C-0.45375 11.236875 -0.9075 10.47375 -1.375 9.6875 C-2.53824492 7.76367186 -3.7529415 5.87058776 -5 4 C-2.50638429 5.20381448 -0.31856917 6.45428722 2 8 C2 6.68 2 5.36 2 4 C0.68 3.67 -0.64 3.34 -2 3 C-1.34 2.01 -0.68 1.02 0 0 Z " fill="#515253" transform="translate(136,244)"/>
<path d="M0 0 C1.8125 1 1.8125 1 3.8125 4 C2.8225 5.485 2.8225 5.485 1.8125 7 C1.1525 6.67 0.4925 6.34 -0.1875 6 C0.4725 5.01 1.1325 4.02 1.8125 3 C-1.37718892 3.75584281 -1.37718892 3.75584281 -3.1875 6.5625 C-3.8475 7.366875 -4.5075 8.17125 -5.1875 9 C-6.1775 9 -7.1675 9 -8.1875 9 C-7.70046981 4.61672826 -4.71591446 0 0 0 Z " fill="#494949" transform="translate(120.1875,228)"/>
<path d="M0 0 C0.99 0 1.98 0 3 0 C1.55134433 3.38019657 -0.08219573 5.73059668 -3 8 C-6.25 8.25 -6.25 8.25 -9 8 C-9.33 6.68 -9.66 5.36 -10 4 C-9.01 3.67 -8.02 3.34 -7 3 C-7 3.99 -7 4.98 -7 6 C-3.73539027 4.19587357 -2.11070205 3.16605307 0 0 Z " fill="#F4F3F4" transform="translate(119,231)"/>
<path d="M0 0 C0.99 0 1.98 0 3 0 C1.60667426 3.36720387 0.0210714 4.9859524 -3 7 C-3 3.47190093 -2.35723489 2.53184488 0 0 Z " fill="#E0E0E1" transform="translate(119,231)"/>
<path d="M0 0 C0.33 0.99 0.66 1.98 1 3 C0.34 3.66 -0.32 4.32 -1 5 C-1.99 5 -2.98 5 -4 5 C-3.6875 3.0625 -3.6875 3.0625 -3 1 C-2.01 0.67 -1.02 0.34 0 0 Z " fill="#504F51" transform="translate(116,232)"/>
</svg>
